<?xml version="1.0" encoding="utf-8"?>
<!-- Generator: Adobe Illustrator 22.0.0, SVG Export Plug-In . SVG Version: 6.00 Build 0)  -->
<svg version="1.1" id="Layer_1" xmlns="http://www.w3.org/2000/svg" xmlns:xlink="http://www.w3.org/1999/xlink" x="0px" y="0px"
	 viewBox="0 0 24 24" style="enable-background:new 0 0 24 24;" xml:space="preserve">
<style type="text/css">
	.st0{fill:#FFFFFF;}
</style>
<g>
	<path class="st0" d="M17.3,4.5c0.2,0.8,0.8,1.3,1.6,1.3c0.9,0,1.7-0.8,1.7-1.7S19.9,2.4,19,2.4c-0.5,0-0.9,0.2-1.2,0.5
		c-0.6-0.4-2.6-1.4-5.6-1.4c-1.6,0-3.2,0.8-4.6,2.3c-1,1-1.6,2-1.7,2.2H5.7c-0.8,0-1.5,0.7-1.5,1.5v0.2c0,0.7,0.4,1.3,1.1,1.5
		c-1,0.6-3.1,2.2-1.1,5.1c-0.7,1.1-0.6,3.1,1.9,3.5c0.7,1.7,2.3,4.8,5.4,3.6c-0.3,0.2-1.5,1.3,0,0.9s4-1.8,5.1-4.4
		c0.9-0.2,3.4-0.9,2.1-3.6c0.8-1.3,1.5-3-0.9-5.2c0.5-0.2,0.9-0.8,0.9-1.4V7.6c0-0.7-0.5-1.4-1.2-1.5L17.3,6c-0.4-0.3-1-0.8-1-1.1
		C16.4,4.8,16.6,4.6,17.3,4.5z M19,3C19.6,3,20,3.5,20,4.1S19.6,5.2,19,5.2c-0.6,0-1.1-0.5-1.1-1.1S18.4,3,19,3z M13.7,15.3
		c-0.4,0.8-1.3,1.3-2.3,1.3c-0.9,0-1.8-0.5-2.2-1.3c-0.1-0.2,0-0.5,0.2-0.6c0.1,0,0.1-0.1,0.2-0.1c0.2,0,0.3,0.1,0.4,0.3
		c0.2,0.5,0.8,0.8,1.4,0.8c0.6,0,1.2-0.3,1.4-0.8c0.1-0.2,0.2-0.3,0.4-0.3c0.1,0,0.1,0,0.2,0C13.7,14.8,13.8,15.1,13.7,15.3z
		 M17.1,13.5c-0.8,0.8-2.3,1-3.2,0.5c-0.9-0.5-1.7-0.6-2.5-0.6c-0.8,0-1.6,0.2-2.1,0.4c-0.5,0.2-2.1,1.1-3.6-0.1
		c-1.2-1-0.5-3.5-0.2-4.4c0,0,0.1,0,0.1,0h11.1C18.1,11.7,17.6,13,17.1,13.5z M18.1,7.8c0,0.5-0.4,0.9-0.9,0.9H5.7
		c-0.5,0-0.9-0.4-0.9-0.9V7.6c0-0.5,0.4-0.9,0.9-0.9h11.4c0.5,0,0.9,0.4,0.9,0.9V7.8z M16.3,6H6.6c0.8-1.1,2.9-3.8,5.6-3.8
		c2.8,0,4.6,0.9,5.2,1.3c-0.1,0.1-0.1,0.3-0.1,0.4c-1,0.2-1.5,0.5-1.6,0.9C15.6,5.2,15.9,5.7,16.3,6z"/>
	<circle class="st0" cx="9.1" cy="11.2" r="0.9"/>
	<circle class="st0" cx="13.6" cy="11.2" r="0.9"/>
</g>
</svg>
