<?xml version="1.0" encoding="utf-8"?>
<!-- Generator: Adobe Illustrator 22.0.0, SVG Export Plug-In . SVG Version: 6.00 Build 0)  -->
<svg version="1.1" id="Layer_1" xmlns="http://www.w3.org/2000/svg" xmlns:xlink="http://www.w3.org/1999/xlink" x="0px" y="0px"
	 viewBox="0 0 24 24" style="enable-background:new 0 0 24 24;" xml:space="preserve">
<g>
	<path d="M23.7,10.8c0-0.3-0.3-0.6-0.7-0.9c-0.3-0.2-0.8-0.3-1.1-0.1c-0.2,0-0.4,0.2-0.5,0.3l-0.2,0.4c-0.3,0-0.4,0.2-0.5,0.3
		c0,0.1,0,0.1,0,0.2c-0.2,0-0.3,0.1-0.3,0.3c0,0.1,0,0.3,0.1,0.4L20,12.5c-0.1-0.1-0.2-0.3-0.2-0.4c0-0.5-0.1-0.9-0.1-1.4
		c0-0.1-0.1-0.2-0.2-0.3c-0.1-0.1-0.3-0.1-0.6,0c-0.9,0.3-1.8,0.9-2.4,1.7c0,0,0,0,0-0.1c0.7-0.6,0.9-1.3,0.9-1.7
		c0-0.2-0.1-0.3-0.2-0.3c-0.1-0.1-0.3,0-0.5,0.1c-0.4,0.3-0.9,0.9-0.9,1.8c-0.2,0.1-0.3,0-0.3,0s0,0,0-0.1c0.6-0.9,0.8-1.7,0.7-2
		c0-0.1-0.1-0.2-0.2-0.3c-0.3-0.1-0.6,0.1-0.9,0.5L15,8.1c0-0.1,0-0.3-0.1-0.3c-0.1-0.1-0.3-0.2-0.4-0.1l-0.6,0.1l1.5-1.4
		c0.1-0.1,0.1-0.2,0.2-0.3c0,0,0,0,0-0.1v0l0-0.7c0-0.1,0-0.3-0.3-0.3l0,0l-2,0.3l0-0.6c0-0.2-0.1-0.4-0.4-0.4l0,0L9.4,5
		c-0.3-0.1-0.6-0.2-0.9,0C8.3,5,8.2,5.1,8.2,5.2L6.8,5.5C6.4,5.5,6.3,5.7,6.2,6l-1,1.8c0,0,0,0.1,0,0.1l0.3,0.9
		c-0.5,0.6-0.9,1.4-0.9,2.2c0,0,0,0-0.1,0c-2.2,0.3-4.1,1.3-4,2.2c0.1,0.7,1.2,1.4,3.2,1.8c0.3,0.6,0.8,0.6,1.3,0.3
		c0.2,0.3,0.4,0.4,0.7,0.4c0,0,0,0,0,0c0.4,0,0.8-0.3,1.1-0.8C7.1,15,7.3,15,7.5,15l1.3,4.1c0.1,0.2,0.2,0.2,0.3,0.2l1.1-0.1v0.1
		L9,19.8c-0.1,0-0.2,0.1-0.3,0.2c0,0,0,0.1,0,0.2l0,0l0.5,0.4l-1.5-0.1c-0.1,0-0.2,0-0.3,0.1c0,0.1-0.1,0.2,0,0.3l0.3,0.7
		c0,0.1,0.1,0.1,0.2,0.1l3.4,0l0,0c0,0,0.1,0,0.2-0.1c0-0.1,0.1-0.3,0.2-0.4c0-0.1,0-0.1,0-0.2s0-0.1,0-0.1
		c-0.1-0.2-0.2-0.6-0.3-0.9c0-0.4,0-0.9,0-1.1l2-0.3l-0.6,1.7L12.3,21c0,0,0,0.1,0,0.2c0,0.1,0.1,0.3,0.3,0.5c0,0,0.1,0.1,0.1,0.1
		l3.9,0.1l0,0c0.1,0,0.1,0,0.2-0.1l0.3-0.9c0-0.1,0-0.2,0-0.3c0-0.1-0.2-0.2-0.3-0.2l0,0L15,20.5l0.7-0.5c0.1,0,0.1-0.1,0.1-0.2
		c0-0.1-0.1-0.3-0.2-0.3l-0.3-0.2c0,0-0.1,0-0.1,0l-0.7,0l0.3-0.9l0.6-0.2c0,0,0.1,0,0.1-0.1l0.2-0.4c0.1-0.1,0.1-0.2,0.1-0.2
		l-0.4-5.1c0.2,0,0.3,0,0.6-0.1c0,0.1,0.1,0.2,0.2,0.2l0,0c-0.1,0.1-0.3,0.4-0.4,0.6c-0.1,0.2-0.1,0.5,0,0.6s0.2,0.3,0.4,0.3
		c0.6,0.2,1.1,0.2,1.9,0.2l0,0c0,0,0,0,0,0.1v0L17.6,15c-0.2,0.2-0.3,0.4-0.2,0.6s0.2,0.3,0.5,0.4l-0.8,1.2c0,0,0,0,0,0.1
		c0.1,0.4-0.3,2-0.5,2.4c-0.1,0.2,0,0.3,0,0.3c0,0,0,0,0.1,0c0.1,0,0.2,0,0.3-0.1l0.1-0.1c0.4-0.4,1.2-1.2,2-1.5c0,0,0,0,0.1,0
		l0.9-1.5c0.2,0,0.4,0,0.5,0c0.5,0,0.7-0.2,0.9-0.3c0.2-0.3,0.1-0.7-0.1-0.9c0,0,0,0,0,0s0,0,0,0c0.6-0.3,0.9-0.7,1-1.2
		c0-0.3,0-0.5-0.2-0.7l0.5-0.8c0.1,0,0.3,0,0.3-0.1c0.1-0.1,0.1-0.3,0.1-0.4c0.1,0,0.2,0,0.2-0.1c0.1-0.1,0.2-0.3,0.1-0.5l0.3-0.4
		C23.7,11.2,23.7,11,23.7,10.8z M22.8,11.7L22.8,11.7c-0.1,0-0.1,0-0.1,0c-0.3-0.4-1-0.7-1.5-0.6c0,0-0.1,0-0.1-0.1s0-0.1,0.1-0.1
		c0.6-0.1,1.4,0.3,1.7,0.7C22.8,11.6,22.8,11.6,22.8,11.7z M21.1,11.9c0.4,0,0.7,0.2,0.9,0.5l-0.5,0.8C21.3,13,21,13,20.7,12.9
		c0,0-0.1,0-0.1,0L21.1,11.9z M17.9,17.2c0,0,0-0.1-0.1-0.1l0.8-1.2c0.2,0,0.3,0,0.6,0.1c0.1,0,0.2,0.1,0.3,0.1l-0.9,1.2
		C18.4,17.2,18.2,17.1,17.9,17.2z M20.7,15.2C20.6,15.2,20.6,15.3,20.7,15.2c-0.2,0.1-0.3,0.2-0.2,0.3c0,0,0,0,0,0c0,0,0,0,0.1,0
		l0,0c0,0,0,0,0,0s0.1,0,0.1,0c0,0,0.1,0.1,0.1,0.1c0,0.1,0,0.2,0,0.3c0,0.1-0.2,0.2-0.4,0.1c0,0-0.1,0-0.1,0c0,0-0.1,0-0.1,0
		c0,0,0,0,0,0c0-0.1-0.1-0.1-0.1-0.2c-0.1-0.1-0.2-0.2-0.3-0.3c-0.2-0.1-0.5-0.3-0.8-0.3c-0.1,0-0.3,0-0.4,0c0,0-0.1,0-0.2,0
		c0,0-0.1,0-0.1,0h0c-0.1,0-0.2-0.1-0.2-0.2c0-0.1,0-0.1,0.1-0.2c0.5-0.4,0.7-0.8,0.6-1c0-0.1-0.1-0.2-0.4-0.1
		c-0.8,0-1.4-0.1-1.9-0.4h0c0,0-0.1,0-0.1,0s0,0,0-0.1c0.6-1.2,1.5-1.9,2.6-2.3c0.1,0,0.2,0,0.3,0c0,0,0,0.1,0,0.2
		c0,0.9,0.1,1.5,0.5,1.8c0,0,0.1,0,0.1,0.1c0,0,0.1,0,0.1,0c0,0,0.1,0,0.2,0s0.1,0,0.2,0c0.4,0.2,0.9,0.4,1,0.6c0,0,0,0,0,0.1
		c0,0.1,0,0.1,0.1,0.2c0,0.1,0,0.2,0,0.3c0,0.2-0.2,0.5-0.5,0.7C20.9,15.1,20.8,15.1,20.7,15.2z M16.4,11.7c0-0.4,0.2-0.8,0.4-0.9
		c0,0,0.1,0,0.1,0h0l0,0C17,10.9,16.7,11.4,16.4,11.7z M17.3,17.4c0.1-0.1,0.4-0.1,0.4,0.1c0.3-0.1,0.6,0,0.5,0.3
		c0.3-0.1,0.3,0.1,0.3,0.2c-0.5,0.3-1,0.6-1.3,1c0,0-0.1-0.1-0.2-0.1C17.2,18.5,17.4,17.8,17.3,17.4z M18.5,17.6L18.5,17.6
		L18.5,17.6C18.6,17.6,18.6,17.6,18.5,17.6z M22.5,12.2L22.5,12.2c-0.1,0-0.1,0-0.1,0c-0.3-0.4-1-0.8-1.6-0.6c0,0-0.1,0-0.1-0.1
		c0,0,0-0.1,0.1-0.1c0.7-0.1,1.5,0.3,1.8,0.7C22.5,12.1,22.5,12.2,22.5,12.2z M21.8,10.2c0.4-0.2,1,0,1.3,0.4l-0.3,0.4
		c-0.4-0.3-0.8-0.5-1.2-0.5l0.1-0.2C21.7,10.3,21.8,10.2,21.8,10.2z M9.5,20.2l0.7-0.3c0.1,0,0.2,0,0.2,0l0.6,1c0,0,0,0,0,0
		l-0.7-0.1l-0.8-0.6V20.2C9.5,20.2,9.5,20.2,9.5,20.2z M13.2,21C13.1,21,13.1,21,13.2,21L13.2,21C13.1,21,13.1,21,13.2,21l0.8-0.9
		c0,0,0.1-0.1,0.2-0.1l0.8,0c0,0,0,0,0,0l-0.8,0.6l-0.1,0L14,20.9L13.2,21z M4.1,13.3c0.2,0,0.5,0.2,0.7,0.3c-0.1,0.3,0,0.6,0,1
		c-0.3,0.1-0.5,0-0.6-0.1C3.9,14.2,3.9,13.7,4.1,13.3z M15.4,17.7L15.4,17.7L10,18.6c-0.1,0-0.2,0-0.2,0l-1.9-6.7
		c0.1-0.2,0.3-0.4,0.6-0.6l0,0c0.1-0.2,0.3-0.4,0.2-0.7c0.1-0.1,0.1-0.1,0.2-0.2c0.3-0.3,0.6-0.6,0.8-0.6c0,0,0.1-0.1,0.1-0.1l0-0.3
		C10,9.1,10,9,10,8.9c0.8-0.2,1.5-0.3,2.2-0.4l0,0.3c0,0,0,0,0,0l0,0c0.4,0.1,0.9,0.2,1.3,0.5l0,0c0,0,0,0,0,0l0.2-0.2v0
		c-0.2-0.3-0.5-0.5-0.8-0.7c0.6-0.1,1.1-0.2,1.6-0.2c0,0,0.1,0,0.1,0.1l0.3,2.9l0.1,1.2l0,0.6L15.4,17.7
		C15.5,17.7,15.5,17.7,15.4,17.7z M5.7,14.1c-0.2,0.3-0.3,0.3-0.5,0.4c-0.1-0.3-0.1-0.6,0-0.7C5.3,13.9,5.5,13.9,5.7,14.1z
		 M3.5,14.4c-1.9-0.5-2.2-1-2.2-1.2c0,0,0,0,0-0.1c0.1-0.1,0.4-0.2,0.8-0.2S3,13,3.4,13.1C3.3,13.5,3.3,13.9,3.5,14.4z M15.2,5.5
		L15.2,5.5v0.1l0,0.3C15.1,6,15,6,14.9,6L8.6,7.2c-0.1,0-0.2,0-0.2-0.1V6.7c0,0,0.1,0,0.1-0.1c0,0,0,0,0.1,0L15,5.4
		C15.1,5.4,15.2,5.4,15.2,5.5z M7,5.9l5.6-1.1c0,0,0.1,0,0.1,0.1l0,0.6L8.4,6.3C8.2,6.4,8.1,6.5,8,6.7L7.6,7.4c-0.1,0-0.3,0-0.4,0
		L6.9,6.2C6.8,6,6.9,6,7,5.9z M9.5,9C9.5,9,9.5,9,9.5,9C9.5,9,9.5,9,9.5,9C9.2,9.2,8.9,9.4,8.4,9.7L8.2,9.8C8.1,9.7,8,9.5,8,9.4
		c0.1,0,0.1-0.1,0.2-0.1l0,0l0,0C8.6,9,9,8.9,9.4,8.8c0,0,0.1,0,0.1,0.1C9.6,8.9,9.6,8.9,9.5,9L9.5,9z M9.3,8.3c0,0.1,0,0.2-0.1,0.3
		C9.1,8.6,8,9,7.9,9.1C7.8,8.9,7.7,8.8,7.8,8.6C8.3,8.3,8.8,8.2,9.3,8.3L9.3,8.3C9.2,8.2,9.2,8.2,9.3,8.3C9.3,8.3,9.3,8.3,9.3,8.3
		L9.3,8.3z M5.7,8.9c0,0,0.1-0.1,0.1-0.2C6.3,8.2,7,8,7.8,8C7.9,8,7.9,8,8,8C8.1,8,8.2,8,8.2,8.1c0,0,0,0.1-0.1,0.1
		C7.5,8.4,7,8.5,6.7,8.6l0,0C6.6,8.7,6.5,8.9,6.5,9C6.4,9.1,6.3,9.3,6.2,9.3l0,0c0,0-0.1,0-0.1,0c0,0,0,0,0.1,0.1
		c0,0,0.2,0.4,0.3,0.6c0,0.1,0.1,0.2,0,0.3c0,0,0,0,0,0.1c0,0,0,0,0,0h0l0,0c0,0-0.1,0-0.1,0c0,0-0.1,0-0.2,0.1c0,0-0.1,0.1-0.1,0.1
		c-0.1,0.1-0.3,0.3-0.3,0.6l0,0c0,0.1,0,0.1,0,0.1c0,0,0.1,0,0.1,0l0,0C6,11.2,6.1,11,6.2,10.9c0,0,0.1-0.1,0.1-0.1
		c0,0,0.1,0,0.1-0.1c0.2-0.1,0.4-0.1,0.6-0.1c0,0,0.1,0,0.1,0c0,0,0-0.1,0-0.2l0,0c-0.3-0.3-0.6-0.7-0.6-1c0,0,0,0,0-0.1
		c0,0,0-0.1,0-0.1c0,0,0,0,0,0c0,0,0-0.1,0.1-0.1l0,0c0,0,0,0,0.1,0c0,0,0,0,0,0l0,0c0.1,0,0.2,0,0.3,0c0.1,0,0.3,0.1,0.3,0.2
		c0,0.1,0,0.2,0.1,0.3l0,0l0,0c0,0.2,0.1,0.3,0.2,0.5c0,0,0,0,0,0c0,0.1,0.1,0.1,0.2,0.2l0,0c0,0,0,0,0.1,0.1
		c0.1,0.1,0.1,0.2,0.1,0.3c0,0,0,0.1-0.1,0.1c-0.1,0.1-0.2,0.2-0.3,0.3l0,0l0,0c-0.2,0.2-0.3,0.3-0.4,0.5c-0.1,0.2-0.3,0.3-0.6,0.3
		c0,0-0.1,0-0.2,0c0,0,0,0-0.1,0l0,0c0,0,0,0,0,0.1c0,0,0,0,0,0.1l0,0c0,0.1,0,0.2,0,0.3c-0.1,0.7-0.2,1.1-0.5,1.5c0,0,0,0,0,0.1
		c0,0,0,0,0,0c-1.1-0.9-2.3-1.4-3.7-1.4h0c0,0-0.1,0-0.1,0c0,0,0,0,0-0.1c0.6-0.5,1.6-0.7,2.8-0.9c0.1,0,0.2-0.1,0.2-0.2
		c0.1-0.8,0.3-1.5,0.6-2C5.6,9,5.6,9,5.7,8.9z M5.4,14.9c0,0,0.1-0.1,0.2-0.1c0.2-0.2,0.5-0.3,0.6-0.6l0.3,0.3C6.3,14.8,6,15,5.8,15
		h0C5.6,15,5.5,15,5.4,14.9z M6.5,13.6c0,0,0.2-0.4,0.3-0.7c0-0.1,0-0.2,0.1-0.3l0,0C6.9,12.7,7,12.9,7,13.1c0,0.2,0,0.3,0,0.5
		c0,0.2-0.1,0.4-0.2,0.5C6.6,13.9,6.5,13.8,6.5,13.6z M7.1,14.2C7.1,14.2,7.1,14.2,7.1,14.2c0-0.1,0.1-0.2,0.1-0.3
		c0-0.1,0-0.3,0-0.4c0-0.2,0-0.4,0-0.6l0.3,1.2c0,0-0.1,0.1-0.1,0.1c0,0-0.1,0-0.2,0C7.3,14.3,7.3,14.3,7.1,14.2
		C7.2,14.2,7.1,14.2,7.1,14.2z M15.2,10.5c0.1-0.3,0.4-0.5,0.5-0.5c0.1,0-0.2,0.8-0.4,1.2L15.2,10.5z"/>
	<path d="M10.2,10.9C10.2,10.9,10.2,10.9,10.2,10.9C10.2,10.9,10.2,10.9,10.2,10.9C10.2,10.9,10.2,10.9,10.2,10.9c0.1,0,0.1,0,0.1,0
		l0,0c0,0,0,0.1,0,0.1c0,0.6,0.5,1.2,1.2,1.3h0h0c0,0,0.1,0,0.2,0c0.3,0,0.5,0,0.6-0.2c0,0,0,0,0,0c0,0,0,0,0,0
		c0.1,0,0.2-0.1,0.3-0.2c0,0,0,0,0,0c0,0,0,0,0,0c0.2-0.3,0.4-0.6,0.4-0.9c0,0,0-0.1,0-0.1c0,0,0,0,0,0l0,0l0,0v0
		c0-0.2-0.1-0.4-0.2-0.5c0.1-0.1,0.2-0.3,0.2-0.5c0-0.3-0.2-0.6-0.4-0.6c-0.1,0-0.2,0-0.2,0.1c-0.1,0.1-0.1,0.3-0.1,0.4
		c0,0,0,0,0,0.1c0,0-0.1,0-0.2-0.1c0,0,0,0,0,0c0,0,0,0,0,0c-0.1,0-0.1,0-0.2,0h0h0c0,0-0.1,0-0.2,0c-0.3,0-0.5,0.1-0.7,0.2
		c0,0,0,0,0,0c0,0,0,0,0,0c-0.2,0.1-0.4,0.3-0.5,0.5v0c0,0,0,0,0,0c0,0,0,0,0,0c0,0,0,0,0-0.1c-0.1-0.2-0.2-0.3-0.3-0.4
		c-0.1,0-0.1,0-0.2,0c0,0-0.1,0-0.1,0.1c-0.1,0.1,0,0.3,0,0.6C9.8,10.8,10,10.9,10.2,10.9z M10.2,10.9L10.2,10.9
		C10.2,10.9,10.3,10.9,10.2,10.9C10.3,10.9,10.3,10.9,10.2,10.9z M12.4,10.3c0.1,0.1,0.2,0.2,0.2,0.3l0,0c0,0,0,0,0,0s0,0,0,0.1l0,0
		l0,0c0,0.1,0,0.1,0,0.2c0,0.5-0.4,0.9-0.9,0.9c-0.1,0-0.2,0-0.3,0c0,0,0,0,0,0c0,0,0,0,0,0c0,0-0.1,0-0.2-0.1c0,0,0,0,0,0l0,0
		c-0.1-0.1-0.2-0.2-0.3-0.3c0,0,0,0,0,0c0,0,0,0,0,0c0-0.1-0.1-0.2-0.1-0.3c0-0.5,0.4-0.9,0.9-0.9c0.2,0,0.4,0,0.5,0.1
		C12.3,10.2,12.3,10.2,12.4,10.3C12.4,10.2,12.4,10.3,12.4,10.3z M12.5,9.4L12.5,9.4L12.5,9.4L12.5,9.4z M10,9.9L10,9.9L10,9.9
		C10,9.9,10,9.9,10,9.9z M9.7,10L9.7,10L9.7,10L9.7,10z"/>
	<path d="M13.6,12C13.6,12,13.6,12,13.6,12c-0.1,0-0.2,0-0.2,0c0,0,0,0.1,0,0.1l0,0.1c-1,0.7-2.2,0.9-3.6,0.4l0-0.1c0,0,0-0.1,0-0.1
		c0,0-0.1-0.1-0.2,0c0,0,0,0,0,0c0,0.2-0.1,0.3-0.3,0.6c0,0,0,0,0,0c0,0.1,0,0.1,0.1,0.1h0l0,0c0,0,0.1-0.1,0.2-0.1l0.1,0
		c0.1,0,0.3,0.1,0.4,0.1c0.2,0,0.4,0.1,0.6,0.2c0.4,0.1,0.7,0.3,0.9,0.4c0.3,0.2,0.6,0.3,0.9,0.3c0,0,0,0,0.1,0l0,0
		c0.6,0,0.7-0.4,0.8-0.9c0-0.3,0.1-0.6,0.2-0.7c0,0,0.1,0,0.2,0.1c0,0,0.1,0,0.1,0l0,0c0,0,0.1,0,0.1,0c0,0,0-0.1,0-0.1
		C13.9,12.3,13.7,12.1,13.6,12z"/>
</g>
</svg>
