<?xml version="1.0" encoding="utf-8"?>
<!-- Generator: Adobe Illustrator 22.0.0, SVG Export Plug-In . SVG Version: 6.00 Build 0)  -->
<svg version="1.1" id="Layer_1" xmlns="http://www.w3.org/2000/svg" xmlns:xlink="http://www.w3.org/1999/xlink" x="0px" y="0px"
	 viewBox="0 0 24 24" style="enable-background:new 0 0 24 24;" xml:space="preserve">
<title>69 all</title>
<path d="M2.6,11.5h0.5v10.4c0,0.4,0.3,0.7,0.7,0.7c0,0,0,0,0,0h16.3c0.4,0,0.7-0.3,0.7-0.7V11.5h0.5c0.4,0,0.7-0.3,0.7-0.7V6.1
	c0-0.4-0.3-0.7-0.7-0.7h-3.3c0.2-0.4,0.3-0.8,0.3-1.3c0-1.5-1.1-2.7-2.6-2.7c-1.9,0-3.1,1.5-3.8,2.7c-0.7-1.2-1.8-2.7-3.8-2.7
	c-1.5,0-2.6,1.2-2.6,2.7c0,0.4,0.1,0.9,0.3,1.3H2.6c-0.4,0-0.7,0.3-0.7,0.7v4.6C1.9,11.1,2.2,11.5,2.6,11.5z M4.6,21.1v-9.6h5.2v9.6
	H4.6z M11.3,21.1v-9.6h1.5v9.6H11.3z M12.7,6.8V10h-1.5V6.8L12.7,6.8z M19.4,21.1h-5.2v-9.6h5.2V21.1z M20.7,10h-6.5V6.8h6.5V10z
	 M15.8,2.9c0.7,0,1.2,0.6,1.2,1.2c0,0.7-0.5,1.2-1.2,1.3H13C13.4,4.4,14.3,2.9,15.8,2.9z M7.1,4.1c0-0.7,0.5-1.2,1.2-1.2
	c1.5,0,2.3,1.5,2.8,2.5H8.2C7.6,5.3,7.1,4.8,7.1,4.1z M3.3,6.8h6.5V10H3.3V6.8z"/>
</svg>
